<svg xmlns="http://www.w3.org/2000/svg" xmlns:xlink="http://www.w3.org/1999/xlink" width="1080" zoomAndPan="magnify" viewBox="0 0 810 310.499991" height="414" preserveAspectRatio="xMidYMid meet" version="1.0"><path fill="#a52731" d="M 273.878906 14.3125 C 251.820312 18.425781 233.371094 31.257812 224.648438 48.402344 C 220.234375 57.328125 218.230469 65.75 218.230469 76.378906 C 218.230469 106.058594 232.570312 123.605469 264.855469 133.832031 C 269.265625 135.234375 278.089844 138.042969 284.605469 140.046875 C 303.957031 146.164062 310.578125 151.777344 311.277344 163.007812 C 311.878906 171.933594 310.074219 177.347656 305.0625 182.261719 C 299.546875 187.472656 293.730469 189.179688 281.398438 189.078125 C 272.675781 188.976562 270.972656 188.578125 260.84375 184.667969 C 251.019531 180.757812 248.910156 180.253906 241.292969 180.253906 C 234.171875 180.253906 231.867188 180.65625 227.253906 182.761719 C 219.933594 186.171875 216.023438 189.578125 213.117188 195.195312 L 210.710938 199.90625 L 215.625 204.417969 C 222.441406 210.535156 242.09375 220.0625 254.828125 223.371094 C 281.296875 230.085938 309.472656 226.578125 327.722656 214.144531 C 345.570312 202.011719 355.195312 184.265625 356.296875 161.605469 C 357.300781 140.148438 350.082031 124.507812 333.738281 113.277344 C 327.519531 108.964844 313.886719 103.25 298.242188 98.335938 C 275.882812 91.316406 266.859375 86.203125 263.75 78.683594 C 261.042969 72.367188 262.648438 64.347656 267.660156 58.632812 C 274.882812 50.410156 288.214844 48.304688 305.460938 52.816406 C 329.324219 58.933594 342.261719 55.324219 350.882812 40.082031 L 353.589844 35.46875 L 349.480469 31.960938 C 340.554688 24.238281 323.710938 17.222656 307.96875 14.714844 C 298.042969 13.109375 281.699219 12.910156 273.878906 14.3125 Z M 273.878906 14.3125 " fill-opacity="1" fill-rule="nonzero"/><path fill="#a52731" d="M 527.050781 14.714844 C 503.390625 18.523438 483.335938 28.550781 467.894531 44.191406 C 454.660156 57.527344 446.4375 72.367188 441.125 92.21875 C 438.71875 100.945312 438.515625 103.75 438.515625 119.996094 C 438.515625 136.238281 438.71875 139.046875 441.023438 147.667969 C 451.753906 187.773438 478.421875 213.945312 518.730469 223.972656 C 530.359375 226.878906 560.339844 227.28125 572.171875 224.574219 C 613.183594 215.449219 642.058594 188.074219 652.386719 148.570312 C 655.195312 137.742188 656.195312 114.582031 654.390625 102.347656 C 651.984375 85.902344 644.265625 67.152344 634.640625 54.320312 C 620.5 35.46875 597.441406 21.03125 573.175781 15.71875 C 562.648438 13.511719 537.882812 12.910156 527.050781 14.714844 Z M 561.644531 53.820312 C 576.382812 56.925781 590.121094 66.753906 597.539062 79.386719 C 604.660156 91.820312 608.167969 112.074219 606.363281 130.320312 C 603.757812 154.988281 593.230469 172.632812 575.683594 181.257812 C 566.65625 185.667969 558.234375 187.574219 547.105469 187.574219 C 517.425781 187.675781 497.273438 172.332031 489.25 143.558594 C 486.746094 134.234375 486.746094 105.757812 489.25 96.433594 C 494.164062 78.785156 504.492188 65.25 518.328125 58.53125 C 530.460938 52.515625 547.003906 50.710938 561.644531 53.820312 Z M 561.644531 53.820312 " fill-opacity="1" fill-rule="nonzero"/><path fill="#a52731" d="M 724.378906 14.214844 C 687.878906 20.832031 665.722656 46.800781 667.726562 80.390625 C 669.230469 104.652344 680.460938 120.195312 703.222656 129.71875 C 708.035156 131.726562 718.964844 135.4375 727.484375 137.941406 C 744.429688 143.054688 748.84375 145.0625 754.15625 149.773438 C 759.472656 154.386719 760.875 157.894531 760.875 165.816406 C 760.773438 177.75 754.660156 185.167969 742.625 188.277344 C 733.101562 190.683594 722.875 189.679688 711.742188 185.269531 C 699.710938 180.355469 694.398438 179.253906 687.378906 180.054688 C 676.449219 181.15625 666.421875 187.472656 661.910156 196.097656 L 659.90625 199.90625 L 664.917969 204.320312 C 670.535156 209.332031 688.480469 218.65625 698.507812 221.664062 C 741.722656 235 783.234375 221.566406 798.675781 189.378906 C 804.191406 177.847656 806.195312 168.023438 805.59375 154.6875 C 804.992188 142.453125 802.988281 136.039062 796.570312 126.410156 C 788.847656 114.980469 776.316406 107.660156 748.140625 98.4375 C 739.316406 95.628906 729.289062 91.917969 725.980469 90.316406 C 715.054688 85.101562 710.441406 77.382812 712.546875 67.554688 C 715.753906 52.714844 731.996094 46.898438 754.359375 52.714844 C 778.222656 58.832031 792.859375 54.820312 800.480469 39.882812 L 802.988281 34.867188 L 799.679688 32.058594 C 794.363281 27.546875 775.113281 18.625 765.6875 16.21875 C 756.164062 13.8125 732.601562 12.710938 724.378906 14.214844 Z M 724.378906 14.214844 " fill-opacity="1" fill-rule="nonzero"/><path fill="#a52731" d="M 373.445312 15.816406 C 372.941406 16.21875 372.640625 63.445312 372.640625 120.695312 L 372.640625 224.773438 L 420.769531 224.773438 L 420.769531 137.742188 C 420.769531 65.851562 420.46875 49.90625 419.367188 45.496094 C 416.058594 33.363281 406.53125 22.734375 394.800781 18.222656 C 389.085938 16.019531 374.746094 14.414062 373.445312 15.816406 Z M 373.445312 15.816406 " fill-opacity="1" fill-rule="nonzero"/><path fill="#a52731" d="M 57.902344 119.292969 C 29.527344 175.945312 6.164062 222.867188 5.863281 223.46875 C 5.261719 225.574219 75.652344 225.273438 84.875 223.167969 C 103.523438 218.957031 117.863281 203.214844 120.46875 183.964844 L 121.171875 178.652344 L 101.519531 178.652344 C 88.484375 178.652344 81.867188 178.25 81.867188 177.648438 C 81.867188 177.046875 85.777344 168.523438 90.492188 158.796875 C 95.203125 149.070312 101.320312 136.238281 104.125 130.222656 C 106.933594 124.304688 109.640625 119.492188 110.144531 119.492188 C 110.542969 119.492188 120.671875 138.945312 132.601562 162.707031 C 150.652344 198.804688 155.0625 206.824219 159.171875 211.238281 C 168.496094 221.0625 179.929688 224.773438 201.484375 224.773438 L 215.222656 224.773438 L 163.082031 120.496094 C 134.40625 63.144531 110.542969 16.21875 110.144531 16.320312 C 109.742188 16.417969 86.277344 62.742188 57.902344 119.292969 Z M 57.902344 119.292969 " fill-opacity="1" fill-rule="nonzero"/><path fill="#a52731" d="M 212.515625 260.367188 C 195.671875 268.789062 196.875 295.0625 214.421875 302.378906 C 219.835938 304.6875 231.667969 304.484375 237.082031 301.980469 L 241.292969 300.074219 L 241.292969 280.921875 L 225.550781 280.921875 L 226.152344 284.132812 C 226.652344 286.738281 227.355469 287.539062 229.558594 287.742188 C 231.96875 288.042969 232.269531 288.441406 232.269531 291.953125 C 232.269531 295.664062 232.066406 295.863281 228.757812 296.566406 C 223.445312 297.566406 218.632812 296.265625 215.324219 292.855469 C 211.8125 289.445312 210.710938 285.035156 211.414062 277.714844 C 211.914062 273.402344 212.515625 272 215.625 269.191406 C 218.730469 266.285156 219.835938 265.882812 224.746094 265.882812 C 227.855469 265.882812 231.765625 266.585938 233.871094 267.585938 C 237.480469 269.292969 237.480469 269.292969 239.386719 266.984375 C 241.992188 263.777344 241.492188 262.773438 236.277344 260.066406 C 229.859375 256.859375 219.433594 256.960938 212.515625 260.367188 Z M 212.515625 260.367188 " fill-opacity="1" fill-rule="nonzero"/><path fill="#a52731" d="M 281.398438 280.921875 L 281.398438 303.984375 L 308.46875 303.984375 L 308.46875 295.964844 L 291.425781 295.964844 L 291.425781 257.863281 L 281.398438 257.863281 Z M 281.398438 280.921875 " fill-opacity="1" fill-rule="nonzero"/><path fill="#a52731" d="M 355.996094 259.265625 C 350.984375 261.472656 345.769531 266.683594 343.964844 271.398438 C 341.457031 278.117188 342.261719 288.441406 345.871094 293.859375 C 350.28125 300.476562 355.597656 303.382812 364.21875 303.785156 C 368.230469 303.984375 373.144531 303.683594 375.148438 302.980469 C 393.796875 296.867188 395.101562 268.089844 377.152344 259.765625 C 372.339844 257.5625 360.609375 257.261719 355.996094 259.265625 Z M 374.046875 267.988281 C 377.855469 270.996094 379.660156 275.109375 379.660156 280.921875 C 379.660156 290.546875 374.746094 295.964844 366.125 295.964844 C 360.007812 295.964844 356.199219 293.554688 353.992188 288.34375 C 351.085938 281.324219 352.890625 272.199219 358.101562 268.089844 C 361.914062 265.082031 370.234375 264.980469 374.046875 267.988281 Z M 374.046875 267.988281 " fill-opacity="1" fill-rule="nonzero"/><path fill="#a52731" d="M 428.789062 280.921875 L 428.789062 303.984375 L 439.621094 303.984375 C 452.855469 303.984375 456.867188 302.980469 460.777344 298.371094 C 466.089844 292.453125 464.585938 283.53125 457.867188 281.425781 C 455.761719 280.722656 455.0625 278.917969 456.867188 278.917969 C 457.46875 278.917969 459.070312 277.816406 460.375 276.410156 C 465.789062 271.097656 462.179688 261.171875 454.058594 258.863281 C 452.054688 258.363281 445.535156 257.863281 439.621094 257.863281 L 428.789062 257.863281 Z M 451.25 266.785156 C 453.257812 268.390625 453.355469 272.902344 451.453125 275.410156 C 450.546875 276.710938 448.441406 277.414062 444.433594 277.714844 L 438.816406 278.117188 L 438.816406 264.679688 L 444.230469 265.082031 C 447.238281 265.382812 450.449219 266.082031 451.25 266.785156 Z M 451.652344 285.535156 C 453.054688 286.4375 453.859375 288.140625 453.859375 289.847656 C 453.859375 294.558594 451.851562 296.0625 445.035156 296.664062 L 438.816406 297.265625 L 438.816406 283.929688 L 444.132812 283.929688 C 447.238281 283.929688 450.246094 284.53125 451.652344 285.535156 Z M 451.652344 285.535156 " fill-opacity="1" fill-rule="nonzero"/><path fill="#a52731" d="M 508.703125 280.222656 C 503.890625 292.554688 499.980469 302.980469 499.980469 303.382812 C 499.980469 303.785156 502.085938 303.984375 504.59375 303.785156 C 509.503906 303.484375 509.90625 303.082031 512.414062 296.664062 L 513.917969 292.953125 L 522.339844 292.953125 C 531.664062 292.953125 532.066406 293.15625 534.070312 299.273438 C 535.476562 303.683594 536.378906 304.183594 541.792969 303.785156 L 545.800781 303.484375 L 536.980469 280.921875 L 528.253906 258.363281 L 517.425781 257.761719 Z M 526.351562 276.710938 C 530.160156 287.140625 530.261719 286.9375 522.441406 286.9375 C 517.527344 286.9375 515.921875 286.636719 516.222656 285.636719 C 516.523438 285.035156 517.929688 280.621094 519.53125 276.109375 C 521.035156 271.496094 522.640625 268.089844 523.042969 268.589844 C 523.441406 268.992188 524.945312 272.699219 526.351562 276.710938 Z M 526.351562 276.710938 " fill-opacity="1" fill-rule="nonzero"/><path fill="#a52731" d="M 583.203125 280.921875 L 583.203125 303.984375 L 610.273438 303.984375 L 610.273438 295.964844 L 593.230469 295.964844 L 593.230469 257.863281 L 583.203125 257.863281 Z M 583.203125 280.921875 " fill-opacity="1" fill-rule="nonzero"/></svg>