<?xml version="1.0" encoding="UTF-8"?>
<svg version="1.1" xmlns="http://www.w3.org/2000/svg" width="1030" height="524">
<path d="M0 0 C339.9 0 679.8 0 1030 0 C1030 172.92 1030 345.84 1030 524 C690.1 524 350.2 524 0 524 C0 351.08 0 178.16 0 0 Z " fill="#FEFCFC" transform="translate(0,0)"/>
<path d="M0 0 C0.804375 0.185625 1.60875 0.37125 2.4375 0.5625 C3.283125 0.706875 4.12875 0.85125 5 1 C5.33 0.67 5.66 0.34 6 0 C8.33944736 0.28730055 10.6739143 0.61936779 13 1 C13.125 3.375 13.125 3.375 13 6 C12.34 6.66 11.68 7.32 11 8 C11.66 8.66 12.32 9.32 13 10 C9.37 10 5.74 10 2 10 C2 7.03 2 4.06 2 1 C1.34 0.67 0.68 0.34 0 0 Z " fill="#D3D1C9" transform="translate(897,458)"/>
<path d="M0 0 C0.625 2.8125 0.625 2.8125 1 6 C0.01 7.485 0.01 7.485 -1 9 C-3.5625 9.25 -3.5625 9.25 -6 9 C-7 8 -7 8 -7.09765625 6.15234375 C-7.06510417 4.1015625 -7.03255208 2.05078125 -7 0 C-4.3333581 -1.33332095 -2.83319697 -0.67102033 0 0 Z " fill="#B9BEC3" transform="translate(561,506)"/>
<path d="M0 0 C0.625 2.8125 0.625 2.8125 1 6 C0.01 7.485 0.01 7.485 -1 9 C-3.5625 9.25 -3.5625 9.25 -6 9 C-7 8 -7 8 -7.09765625 6.15234375 C-7.06510417 4.1015625 -7.03255208 2.05078125 -7 0 C-4.3333581 -1.33332095 -2.83319697 -0.67102033 0 0 Z " fill="#B9BEC3" transform="translate(311,506)"/>
<path d="M0 0 C4.55555556 0.55555556 4.55555556 0.55555556 6 2 C6.23529412 7.52941176 6.23529412 7.52941176 5 10 C2.625 10.125 2.625 10.125 0 10 C-2 8 -2 8 -2.25 5 C-2 2 -2 2 0 0 Z " fill="#C1B8BC" transform="translate(400,505)"/>
<path d="M0 0 C0.625 2.8125 0.625 2.8125 1 6 C0.01 7.485 0.01 7.485 -1 9 C-3.5625 9.25 -3.5625 9.25 -6 9 C-7 8 -7 8 -7.09765625 6.15234375 C-7.06510417 4.1015625 -7.03255208 2.05078125 -7 0 C-4.3333581 -1.33332095 -2.83319697 -0.67102033 0 0 Z " fill="#B9BEC3" transform="translate(114,505)"/>
<path d="M0 0 C4.55555556 0.55555556 4.55555556 0.55555556 6 2 C6.23529412 7.52941176 6.23529412 7.52941176 5 10 C2.625 10.125 2.625 10.125 0 10 C-2 8 -2 8 -2.25 5 C-2 2 -2 2 0 0 Z " fill="#C1B8BC" transform="translate(917,504)"/>
<path d="M0 0 C4.55555556 0.55555556 4.55555556 0.55555556 6 2 C6.23529412 7.52941176 6.23529412 7.52941176 5 10 C2.625 10.125 2.625 10.125 0 10 C-2 8 -2 8 -2.25 5 C-2 2 -2 2 0 0 Z " fill="#C1B8BC" transform="translate(722,504)"/>
<path d="M0 0 C0.625 2.8125 0.625 2.8125 1 6 C0.01 7.485 0.01 7.485 -1 9 C-3.5625 9.25 -3.5625 9.25 -6 9 C-7 8 -7 8 -7.09765625 6.15234375 C-7.06510417 4.1015625 -7.03255208 2.05078125 -7 0 C-4.3333581 -1.33332095 -2.83319697 -0.67102033 0 0 Z " fill="#B9BEC3" transform="translate(561,460)"/>
<path d="M0 0 C0.625 2.8125 0.625 2.8125 1 6 C0.01 7.485 0.01 7.485 -1 9 C-3.5625 9.25 -3.5625 9.25 -6 9 C-7 8 -7 8 -7.09765625 6.15234375 C-7.06510417 4.1015625 -7.03255208 2.05078125 -7 0 C-4.3333581 -1.33332095 -2.83319697 -0.67102033 0 0 Z " fill="#B9BEC3" transform="translate(214,460)"/>
<path d="M0 0 C4.55555556 0.55555556 4.55555556 0.55555556 6 2 C6.23529412 7.52941176 6.23529412 7.52941176 5 10 C2.625 10.125 2.625 10.125 0 10 C-2 8 -2 8 -2.25 5 C-2 2 -2 2 0 0 Z " fill="#C1B8BC" transform="translate(303,459)"/>
<path d="M0 0 C4.55555556 0.55555556 4.55555556 0.55555556 6 2 C6.23529412 7.52941176 6.23529412 7.52941176 5 10 C2.625 10.125 2.625 10.125 0 10 C-2 8 -2 8 -2.25 5 C-2 2 -2 2 0 0 Z " fill="#C1B8BC" transform="translate(913,458)"/>
<path d="M0 0 C4.55555556 0.55555556 4.55555556 0.55555556 6 2 C6.23529412 7.52941176 6.23529412 7.52941176 5 10 C2.625 10.125 2.625 10.125 0 10 C-2 8 -2 8 -2.25 5 C-2 2 -2 2 0 0 Z " fill="#C1B8BC" transform="translate(721,458)"/>
<path d="M0 0 C4.55555556 0.55555556 4.55555556 0.55555556 6 2 C6.23529412 7.52941176 6.23529412 7.52941176 5 10 C2.625 10.125 2.625 10.125 0 10 C-2 8 -2 8 -2.25 5 C-2 2 -2 2 0 0 Z " fill="#C1B8BC" transform="translate(400,458)"/>
<path d="M0 0 C1.98 0 3.96 0 6 0 C6 0.33 6 0.66 6 1 C4.35 1 2.7 1 1 1 C1 1.99 1 2.98 1 4 C2.65 4.33 4.3 4.66 6 5 C6 6.32 6 7.64 6 9 C5 10 5 10 2.625 10.1875 C0 10 0 10 -3 8 C-3.33 8.66 -3.66 9.32 -4 10 C-4 9.01 -4 8.02 -4 7 C-5.98 7 -7.96 7 -10 7 C-9.34 6.34 -8.68 5.68 -8 5 C-5.875 5.375 -5.875 5.375 -4 6 C-3.67 5.34 -3.34 4.68 -3 4 C-2.34 4 -1.68 4 -1 4 C-0.67 2.68 -0.34 1.36 0 0 Z " fill="#A69FA0" transform="translate(31,505)"/>
<path d="M0 0 C2.00720923 0.28674418 4.0085944 0.61866701 6 1 C6 3.64 6 6.28 6 9 C4.02 9.33 2.04 9.66 0 10 C-2 7 -2 7 -1.6875 3.875 C-1 1 -1 1 0 0 Z " fill="#C2BDB9" transform="translate(209,505)"/>
<path d="M0 0 C2.625 0.375 2.625 0.375 5 1 C5.625 3.8125 5.625 3.8125 6 7 C5.01 8.485 5.01 8.485 4 10 C1.375 10.1875 1.375 10.1875 -1 10 C-2.38125018 7.23749964 -2.19079306 5.05268901 -2 2 C-1.34 1.34 -0.68 0.68 0 0 Z " fill="#BABBC1" transform="translate(108,458)"/>
<path d="M0 0 C0.6875 1.75 0.6875 1.75 1 4 C-0.4375 6.25 -0.4375 6.25 -2 8 C-1.01 8.66 -0.02 9.32 1 10 C-1.31 10 -3.62 10 -6 10 C-7.4783226 7.04335481 -7.06032783 4.25770263 -7 1 C-4.53721199 -0.231394 -2.7204945 -0.07159196 0 0 Z " fill="#C0BBB9" transform="translate(301,505)"/>
<path d="M0 0 C1.98 0 3.96 0 6 0 C6.6875 1.75 6.6875 1.75 7 4 C5.5625 6.25 5.5625 6.25 4 8 C4.99 8.66 5.98 9.32 7 10 C4.36 10 1.72 10 -1 10 C-1.125 3.375 -1.125 3.375 0 0 Z " fill="#BCB8B9" transform="translate(199,505)"/>
<path d="M0 0 C4.62 0 9.24 0 14 0 C13.01 0.66 12.02 1.32 11 2 C10.5 5 10.5 5 11 8 C11.99 8.66 12.98 9.32 14 10 C11.625 9.75 11.625 9.75 9 9 C7.6875 6.9375 7.6875 6.9375 7 5 C6.67 6.65 6.34 8.3 6 10 C4.35 10 2.7 10 1 10 C2.32 9.34 3.64 8.68 5 8 C5 7.34 5 6.68 5 6 C4.01 5.34 3.02 4.68 2 4 C2.66 3.34 3.32 2.68 4 2 C2.68 1.34 1.36 0.68 0 0 Z " fill="#7F8286" transform="translate(21,459)"/>
<path d="M0 0 C1.2065625 0.0309375 1.2065625 0.0309375 2.4375 0.0625 C1.4784375 0.495625 1.4784375 0.495625 0.5 0.9375 C-1.71456079 1.89073451 -1.71456079 1.89073451 -2.5625 4.0625 C0.4075 4.5575 0.4075 4.5575 3.4375 5.0625 C3.1075 6.7125 2.7775 8.3625 2.4375 10.0625 C0.0625 10.25 0.0625 10.25 -2.5625 10.0625 C-4.5625 7.0625 -4.5625 7.0625 -4.25 3.9375 C-3.32783333 0.08116667 -3.32783333 0.08116667 0 0 Z " fill="#C1C3C5" transform="translate(393.5625,504.9375)"/>
<path d="M0 0 C1.2065625 0.0309375 1.2065625 0.0309375 2.4375 0.0625 C1.4784375 0.495625 1.4784375 0.495625 0.5 0.9375 C-1.71456079 1.89073451 -1.71456079 1.89073451 -2.5625 4.0625 C0.4075 4.5575 0.4075 4.5575 3.4375 5.0625 C3.1075 6.7125 2.7775 8.3625 2.4375 10.0625 C0.0625 10.25 0.0625 10.25 -2.5625 10.0625 C-4.5625 7.0625 -4.5625 7.0625 -4.25 3.9375 C-3.32783333 0.08116667 -3.32783333 0.08116667 0 0 Z " fill="#C1C3C5" transform="translate(715.5625,503.9375)"/>
<path d="M0 0 C1.2065625 0.0309375 1.2065625 0.0309375 2.4375 0.0625 C1.4784375 0.495625 1.4784375 0.495625 0.5 0.9375 C-1.71456079 1.89073451 -1.71456079 1.89073451 -2.5625 4.0625 C0.4075 4.5575 0.4075 4.5575 3.4375 5.0625 C3.1075 6.7125 2.7775 8.3625 2.4375 10.0625 C0.0625 10.25 0.0625 10.25 -2.5625 10.0625 C-4.5625 7.0625 -4.5625 7.0625 -4.25 3.9375 C-3.32783333 0.08116667 -3.32783333 0.08116667 0 0 Z " fill="#C1C3C5" transform="translate(393.5625,457.9375)"/>
<path d="M0 0 C1.65 0 3.3 0 5 0 C5.19412181 1.47831221 5.38012131 2.95769316 5.5625 4.4375 C5.66691406 5.26121094 5.77132812 6.08492188 5.87890625 6.93359375 C5.91886719 7.61550781 5.95882812 8.29742188 6 9 C5 10 5 10 1.9375 10.0625 C0.968125 10.041875 -0.00125 10.02125 -1 10 C-1.625 8.125 -1.625 8.125 -2 6 C-1.34 5.34 -0.68 4.68 0 4 C1.32 4 2.64 4 4 4 C4 3.01 4 2.02 4 1 C2.68 0.67 1.36 0.34 0 0 Z " fill="#7A7072" transform="translate(546,505)"/>
<path d="M0 0 C1.65 0 3.3 0 5 0 C5.19412181 1.47831221 5.38012131 2.95769316 5.5625 4.4375 C5.66691406 5.26121094 5.77132812 6.08492188 5.87890625 6.93359375 C5.91886719 7.61550781 5.95882812 8.29742187 6 9 C5 10 5 10 1.9375 10.0625 C0.968125 10.041875 -0.00125 10.02125 -1 10 C-1.625 8.125 -1.625 8.125 -2 6 C-1.34 5.34 -0.68 4.68 0 4 C1.32 4 2.64 4 4 4 C4 3.01 4 2.02 4 1 C2.68 0.67 1.36 0.34 0 0 Z " fill="#7A7072" transform="translate(546,459)"/>
<path d="M0 0 C1.2065625 0.0309375 1.2065625 0.0309375 2.4375 0.0625 C2.4375 2.7025 2.4375 5.3425 2.4375 8.0625 C0.77138095 8.105221 -0.89632885 8.10313832 -2.5625 8.0625 C-3.5625 7.0625 -3.5625 7.0625 -3.6875 4.0625 C-3.52180824 0.08589776 -3.52180824 0.08589776 0 0 Z " fill="#E5DDD9" transform="translate(34.5625,459.9375)"/>
<path d="M0 0 C0.66 0 1.32 0 2 0 C2.125 2.375 2.125 2.375 2 5 C1.34 5.66 0.68 6.32 0 7 C0.66 7.66 1.32 8.32 2 9 C-0.31 9 -2.62 9 -5 9 C-4.0409375 7.88625 -4.0409375 7.88625 -3.0625 6.75 C-1.21666593 4.2888879 -0.43930826 2.96533074 0 0 Z " fill="#84889B" transform="translate(908,459)"/>
<path d="M0 0 C0.99 0.99 1.98 1.98 3 3 C3.33 2.34 3.66 1.68 4 1 C4 1.66 4 2.32 4 3 C4.66 3.33 5.32 3.66 6 4 C5.01 4.99 4.02 5.98 3 7 C3 6.34 3 5.68 3 5 C1.02 5 -0.96 5 -3 5 C-1.125 1.125 -1.125 1.125 0 0 Z " fill="#9C8C8D" transform="translate(908,507)"/>
<path d="M0 0 C0.33 0.99 0.66 1.98 1 3 C3.01508358 3.73323796 3.01508358 3.73323796 5 4 C3.68 5.32 2.36 6.64 1 8 C2.32 8.33 3.64 8.66 5 9 C3.35 9 1.7 9 0 9 C-1.36623674 6.26752652 -1.128426 4.01801098 -1 1 C-0.67 0.67 -0.34 0.34 0 0 Z " fill="#817C90" transform="translate(99,505)"/>
<path d="M0 0 C0.33 0.99 0.66 1.98 1 3 C3.01508358 3.73323796 3.01508358 3.73323796 5 4 C3.68 5.32 2.36 6.64 1 8 C2.32 8.33 3.64 8.66 5 9 C3.35 9 1.7 9 0 9 C-1.36623674 6.26752652 -1.128426 4.01801098 -1 1 C-0.67 0.67 -0.34 0.34 0 0 Z " fill="#817C90" transform="translate(199,460)"/>
<path d="M0 0 C2.625 -0.1875 2.625 -0.1875 5 0 C4.0409375 0.433125 4.0409375 0.433125 3.0625 0.875 C0.84793921 1.82823451 0.84793921 1.82823451 0 4 C1.32 4.33 2.64 4.66 4 5 C3.01 5.33 2.02 5.66 1 6 C0.34 6.99 -0.32 7.98 -1 9 C-1.625 6.1875 -1.625 6.1875 -2 3 C-1.34 2.01 -0.68 1.02 0 0 Z " fill="#787773" transform="translate(391,505)"/>
<path d="M0 0 C2.625 -0.1875 2.625 -0.1875 5 0 C4.0409375 0.433125 4.0409375 0.433125 3.0625 0.875 C0.84793921 1.82823451 0.84793921 1.82823451 0 4 C1.32 4.33 2.64 4.66 4 5 C3.01 5.33 2.02 5.66 1 6 C0.34 6.99 -0.32 7.98 -1 9 C-1.625 6.1875 -1.625 6.1875 -2 3 C-1.34 2.01 -0.68 1.02 0 0 Z " fill="#787773" transform="translate(713,504)"/>
<path d="M0 0 C1.98 0.495 1.98 0.495 4 1 C4 2.32 4 3.64 4 5 C2.35 5 0.7 5 -1 5 C-0.67 3.35 -0.34 1.7 0 0 Z " fill="#CED2D1" transform="translate(712,463)"/>
<path d="M0 0 C2.625 -0.1875 2.625 -0.1875 5 0 C4.0409375 0.433125 4.0409375 0.433125 3.0625 0.875 C0.84793921 1.82823451 0.84793921 1.82823451 0 4 C1.32 4.33 2.64 4.66 4 5 C3.01 5.33 2.02 5.66 1 6 C0.34 6.99 -0.32 7.98 -1 9 C-1.625 6.1875 -1.625 6.1875 -2 3 C-1.34 2.01 -0.68 1.02 0 0 Z " fill="#787773" transform="translate(391,458)"/>
<path d="M0 0 C1.66611905 -0.042721 3.33382885 -0.04063832 5 0 C6 1 6 1 6.0625 4.0625 C6.041875 5.031875 6.02125 6.00125 6 7 C5.34 6.01 4.68 5.02 4 4 C1.94074861 3.27617533 1.94074861 3.27617533 0 3 C0 2.01 0 1.02 0 0 Z " fill="#D2D6E1" transform="translate(712,459)"/>
<path d="M0 0 C1.98 0.495 1.98 0.495 4 1 C3.67 1.99 3.34 2.98 3 4 C1.68 4 0.36 4 -1 4 C-0.67 2.68 -0.34 1.36 0 0 Z " fill="#F9F7ED" transform="translate(547,510)"/>
<path d="M0 0 C0.99 0 1.98 0 3 0 C3 1.32 3 2.64 3 4 C1.35 4 -0.3 4 -2 4 C-1.34 2.68 -0.68 1.36 0 0 Z " fill="#DDD2CA" transform="translate(102,509)"/>
<path d="M0 0 C1.98 0.495 1.98 0.495 4 1 C3.67 1.99 3.34 2.98 3 4 C1.68 4 0.36 4 -1 4 C-0.67 2.68 -0.34 1.36 0 0 Z " fill="#F9F7ED" transform="translate(547,464)"/>
<path d="M0 0 C0.99 0 1.98 0 3 0 C3 1.32 3 2.64 3 4 C1.35 4 -0.3 4 -2 4 C-1.34 2.68 -0.68 1.36 0 0 Z " fill="#DDD2CA" transform="translate(202,464)"/>
</svg>
